# xmcd CD database file
#
# Track frame offsets:
#	150
#	9242
#	22063
#	36621
#	45926
#	58854
#	76236
#	86349
#	101117
#	113244
#	129435
#	139584
#
# Disc length: 2026 seconds
#
# Revision: 0
# Processed by: cddbd v1.5.2PL0 Copyright (c) Steve Scherf et al.
# Submitted via: CDex 1.70beta2
#
DISCID=9507e80c
DTITLE=RONEE BLAKLEY - Welcome
DYEAR=1975
DGENRE=Country
TTITLE0=American Beauty
TTITLE1=I Was Born To Love You(Naci Para Amarte)
TTITLE2=Please
TTITLE3=Young Man
TTITLE4=Idaho Home
TTITLE5=She Lays It On The Line
TTITLE6=Nobod's Bride
TTITLE7=If I Saw You In The Morning
TTITLE8=Tapedeck
TTITLE9=Need A New Sun Rising
TTITLE10=Locked Behind My True Lov's Door
TTITLE11=Welcome
EXTD=YEAR: 1975
EXTT0=
EXTT1=
EXTT2=
EXTT3=
EXTT4=
EXTT5=
EXTT6=
EXTT7=
EXTT8=
EXTT9=
EXTT10=
EXTT11=
PLAYORDER=
